<?xml version="1.0" encoding="UTF-8" standalone="no"?><svg xmlns="http://www.w3.org/2000/svg" xmlns:xlink="http://www.w3.org/1999/xlink" contentScriptType="application/ecmascript" contentStyleType="text/css" height="627px" preserveAspectRatio="none" style="width:804px;height:627px;" version="1.1" viewBox="0 0 804 627" width="804px" zoomAndPan="magnify"><defs><filter height="300%" id="fudd5hi8xrf5y" width="300%" x="-1" y="-1"><feGaussianBlur result="blurOut" stdDeviation="2.0"/><feColorMatrix in="blurOut" result="blurOut2" type="matrix" values="0 0 0 0 0 0 0 0 0 0 0 0 0 0 0 0 0 0 .4 0"/><feOffset dx="4.0" dy="4.0" in="blurOut2" result="blurOut3"/><feBlend in="SourceGraphic" in2="blurOut3" mode="normal"/></filter></defs><g><!--cluster kotlin.collections--><polygon fill="#FFFFFF" filter="url(#fudd5hi8xrf5y)" points="22,24,161,24,168,46.2969,782,46.2969,782,615,22,615,22,24" style="stroke: #000000; stroke-width: 2.0;"/><line style="stroke: #000000; stroke-width: 2.0;" x1="22" x2="168" y1="46.2969" y2="46.2969"/><text fill="#000000" font-family="sans-serif" font-size="14" font-weight="bold" lengthAdjust="spacingAndGlyphs" textLength="133" x="26" y="38.9951">kotlin.collections</text><!--class Iterable--><rect fill="#FEFECE" filter="url(#fudd5hi8xrf5y)" height="52.8047" id="Iterable" style="stroke: #A80036; stroke-width: 1.5;" width="151" x="304.5" y="59"/><ellipse cx="334.8" cy="75" fill="#B4A7E5" rx="11" ry="11" style="stroke: #A80036; stroke-width: 1.0;"/><path d="M335.7531,71.7813 L335.7531,78.2969 L337.4719,78.2969 C337.925,78.2969 338.0656,78.3281 338.2375,78.4531 C338.4719,78.625 338.5813,78.875 338.5813,79.1563 C338.5813,79.7188 338.2219,80 337.4719,80 L332.3313,80 C331.925,80 331.7219,79.9531 331.5656,79.8281 C331.3469,79.6719 331.2063,79.4063 331.2063,79.1563 C331.2063,78.8594 331.3625,78.5781 331.6125,78.4219 C331.7688,78.3125 331.8938,78.2969 332.3313,78.2969 L334.05,78.2969 L334.05,71.7813 L332.3313,71.7813 C331.9094,71.7813 331.7219,71.75 331.5656,71.6406 C331.3469,71.4688 331.2063,71.2188 331.2063,70.9375 C331.2063,70.6563 331.3625,70.3594 331.6125,70.2031 C331.7688,70.1094 331.8938,70.0938 332.3313,70.0938 L337.4719,70.0938 C337.925,70.0938 338.0656,70.125 338.2375,70.2344 C338.4719,70.4063 338.5813,70.6719 338.5813,70.9375 C338.5813,71.2344 338.4406,71.5156 338.175,71.6719 C338.05,71.75 337.8625,71.7813 337.4719,71.7813 Z "/><text fill="#000000" font-family="sans-serif" font-size="12" font-style="italic" lengthAdjust="spacingAndGlyphs" textLength="49" x="352.2" y="79.1543">Iterable</text><rect fill="#FFFFFF" height="15.9688" style="stroke: #000000; stroke-width: 1.0; stroke-dasharray: 2.0,2.0;" width="34" x="424.5" y="56"/><text fill="#000000" font-family="sans-serif" font-size="12" font-style="italic" lengthAdjust="spacingAndGlyphs" textLength="32" x="425.5" y="68.1387">out T</text><line style="stroke: #A80036; stroke-width: 1.5;" x1="305.5" x2="454.5" y1="91" y2="91"/><ellipse cx="315.5" cy="102.9023" fill="#84BE84" rx="3" ry="3" style="stroke: #038048; stroke-width: 1.0;"/><text fill="#000000" font-family="sans-serif" font-size="11" font-style="italic" lengthAdjust="spacingAndGlyphs" textLength="125" x="324.5" y="105.2104">iterator(): Iterator&lt;T&gt;</text><!--class MutableIterable--><rect fill="#FEFECE" filter="url(#fudd5hi8xrf5y)" height="52.8047" id="MutableIterable" style="stroke: #A80036; stroke-width: 1.5;" width="195" x="421.5" y="195"/><ellipse cx="449.1" cy="211" fill="#B4A7E5" rx="11" ry="11" style="stroke: #A80036; stroke-width: 1.0;"/><path d="M450.0531,207.7813 L450.0531,214.2969 L451.7719,214.2969 C452.225,214.2969 452.3656,214.3281 452.5375,214.4531 C452.7719,214.625 452.8813,214.875 452.8813,215.1563 C452.8813,215.7188 452.5219,216 451.7719,216 L446.6313,216 C446.225,216 446.0219,215.9531 445.8656,215.8281 C445.6469,215.6719 445.5063,215.4063 445.5063,215.1563 C445.5063,214.8594 445.6625,214.5781 445.9125,214.4219 C446.0688,214.3125 446.1938,214.2969 446.6313,214.2969 L448.35,214.2969 L448.35,207.7813 L446.6313,207.7813 C446.2094,207.7813 446.0219,207.75 445.8656,207.6406 C445.6469,207.4688 445.5063,207.2188 445.5063,206.9375 C445.5063,206.6563 445.6625,206.3594 445.9125,206.2031 C446.0688,206.1094 446.1938,206.0938 446.6313,206.0938 L451.7719,206.0938 C452.225,206.0938 452.3656,206.125 452.5375,206.2344 C452.7719,206.4063 452.8813,206.6719 452.8813,206.9375 C452.8813,207.2344 452.7406,207.5156 452.475,207.6719 C452.35,207.75 452.1625,207.7813 451.7719,207.7813 Z "/><text fill="#000000" font-family="sans-serif" font-size="12" font-style="italic" lengthAdjust="spacingAndGlyphs" textLength="99" x="465.9" y="215.1543">MutableIterable</text><rect fill="#FFFFFF" height="15.9688" style="stroke: #000000; stroke-width: 1.0; stroke-dasharray: 2.0,2.0;" width="34" x="585.5" y="192"/><text fill="#000000" font-family="sans-serif" font-size="12" font-style="italic" lengthAdjust="spacingAndGlyphs" textLength="32" x="586.5" y="204.1387">out T</text><line style="stroke: #A80036; stroke-width: 1.5;" x1="422.5" x2="615.5" y1="227" y2="227"/><ellipse cx="432.5" cy="238.9023" fill="#84BE84" rx="3" ry="3" style="stroke: #038048; stroke-width: 1.0;"/><text fill="#000000" font-family="sans-serif" font-size="11" font-style="italic" lengthAdjust="spacingAndGlyphs" textLength="169" x="441.5" y="241.2104">iterator(): MutableIterator&lt;T&gt;</text><!--class Collection--><rect fill="#FEFECE" filter="url(#fudd5hi8xrf5y)" height="99.2188" id="Collection" style="stroke: #A80036; stroke-width: 1.5;" width="289" x="97.5" y="172"/><ellipse cx="189.25" cy="188" fill="#B4A7E5" rx="11" ry="11" style="stroke: #A80036; stroke-width: 1.0;"/><path d="M190.2031,184.7813 L190.2031,191.2969 L191.9219,191.2969 C192.375,191.2969 192.5156,191.3281 192.6875,191.4531 C192.9219,191.625 193.0313,191.875 193.0313,192.1563 C193.0313,192.7188 192.6719,193 191.9219,193 L186.7813,193 C186.375,193 186.1719,192.9531 186.0156,192.8281 C185.7969,192.6719 185.6563,192.4063 185.6563,192.1563 C185.6563,191.8594 185.8125,191.5781 186.0625,191.4219 C186.2188,191.3125 186.3438,191.2969 186.7813,191.2969 L188.5,191.2969 L188.5,184.7813 L186.7813,184.7813 C186.3594,184.7813 186.1719,184.75 186.0156,184.6406 C185.7969,184.4688 185.6563,184.2188 185.6563,183.9375 C185.6563,183.6563 185.8125,183.3594 186.0625,183.2031 C186.2188,183.1094 186.3438,183.0938 186.7813,183.0938 L191.9219,183.0938 C192.375,183.0938 192.5156,183.125 192.6875,183.2344 C192.9219,183.4063 193.0313,183.6719 193.0313,183.9375 C193.0313,184.2344 192.8906,184.5156 192.625,184.6719 C192.5,184.75 192.3125,184.7813 191.9219,184.7813 Z "/><text fill="#000000" font-family="sans-serif" font-size="12" font-style="italic" lengthAdjust="spacingAndGlyphs" textLength="61" x="209.75" y="192.1543">Collection</text><rect fill="#FFFFFF" height="15.9688" style="stroke: #000000; stroke-width: 1.0; stroke-dasharray: 2.0,2.0;" width="34" x="355.5" y="169"/><text fill="#000000" font-family="sans-serif" font-size="12" font-style="italic" lengthAdjust="spacingAndGlyphs" textLength="32" x="356.5" y="181.1387">out T</text><line style="stroke: #A80036; stroke-width: 1.5;" x1="98.5" x2="385.5" y1="204" y2="204"/><ellipse cx="108.5" cy="215.9023" fill="none" rx="3" ry="3" style="stroke: #038048; stroke-width: 1.0;"/><text fill="#000000" font-family="sans-serif" font-size="11" font-style="italic" lengthAdjust="spacingAndGlyphs" textLength="44" x="117.5" y="218.2104">size: Int</text><line style="stroke: #A80036; stroke-width: 1.5;" x1="98.5" x2="385.5" y1="224.8047" y2="224.8047"/><ellipse cx="108.5" cy="236.707" fill="#84BE84" rx="3" ry="3" style="stroke: #038048; stroke-width: 1.0;"/><text fill="#000000" font-family="sans-serif" font-size="11" font-style="italic" lengthAdjust="spacingAndGlyphs" textLength="107" x="117.5" y="239.0151">isEmpty(): Boolean</text><ellipse cx="108.5" cy="249.5117" fill="#84BE84" rx="3" ry="3" style="stroke: #038048; stroke-width: 1.0;"/><text fill="#000000" font-family="sans-serif" font-size="11" font-style="italic" lengthAdjust="spacingAndGlyphs" textLength="170" x="117.5" y="251.8198">contains(element: E): Boolean</text><ellipse cx="108.5" cy="262.3164" fill="#84BE84" rx="3" ry="3" style="stroke: #038048; stroke-width: 1.0;"/><text fill="#000000" font-family="sans-serif" font-size="11" font-style="italic" lengthAdjust="spacingAndGlyphs" textLength="263" x="117.5" y="264.6245">containsAll(elements: Collection&lt;E&gt;): Boolean</text><!--class MutableCollection--><rect fill="#FEFECE" filter="url(#fudd5hi8xrf5y)" height="104.0234" id="MutableCollection" style="stroke: #A80036; stroke-width: 1.5;" width="275" x="171.5" y="337.5"/><ellipse cx="243.25" cy="353.5" fill="#B4A7E5" rx="11" ry="11" style="stroke: #A80036; stroke-width: 1.0;"/><path d="M244.2031,350.2813 L244.2031,356.7969 L245.9219,356.7969 C246.375,356.7969 246.5156,356.8281 246.6875,356.9531 C246.9219,357.125 247.0313,357.375 247.0313,357.6563 C247.0313,358.2188 246.6719,358.5 245.9219,358.5 L240.7813,358.5 C240.375,358.5 240.1719,358.4531 240.0156,358.3281 C239.7969,358.1719 239.6563,357.9063 239.6563,357.6563 C239.6563,357.3594 239.8125,357.0781 240.0625,356.9219 C240.2188,356.8125 240.3438,356.7969 240.7813,356.7969 L242.5,356.7969 L242.5,350.2813 L240.7813,350.2813 C240.3594,350.2813 240.1719,350.25 240.0156,350.1406 C239.7969,349.9688 239.6563,349.7188 239.6563,349.4375 C239.6563,349.1563 239.8125,348.8594 240.0625,348.7031 C240.2188,348.6094 240.3438,348.5938 240.7813,348.5938 L245.9219,348.5938 C246.375,348.5938 246.5156,348.625 246.6875,348.7344 C246.9219,348.9063 247.0313,349.1719 247.0313,349.4375 C247.0313,349.7344 246.8906,350.0156 246.625,350.1719 C246.5,350.25 246.3125,350.2813 245.9219,350.2813 Z "/><text fill="#000000" font-family="sans-serif" font-size="12" font-style="italic" lengthAdjust="spacingAndGlyphs" textLength="111" x="263.75" y="357.6543">MutableCollection</text><rect fill="#FFFFFF" height="15.9688" style="stroke: #000000; stroke-width: 1.0; stroke-dasharray: 2.0,2.0;" width="10" x="439.5" y="334.5"/><text fill="#000000" font-family="sans-serif" font-size="12" font-style="italic" lengthAdjust="spacingAndGlyphs" textLength="8" x="440.5" y="346.6387">E</text><line style="stroke: #A80036; stroke-width: 1.5;" x1="172.5" x2="445.5" y1="369.5" y2="369.5"/><ellipse cx="182.5" cy="381.4023" fill="#84BE84" rx="3" ry="3" style="stroke: #038048; stroke-width: 1.0;"/><text fill="#000000" font-family="sans-serif" font-size="11" font-style="italic" lengthAdjust="spacingAndGlyphs" textLength="144" x="191.5" y="383.7104">add(element: E): Boolean</text><ellipse cx="182.5" cy="394.207" fill="#84BE84" rx="3" ry="3" style="stroke: #038048; stroke-width: 1.0;"/><text fill="#000000" font-family="sans-serif" font-size="11" font-style="italic" lengthAdjust="spacingAndGlyphs" textLength="237" x="191.5" y="396.5151">addAll(elements: Collection&lt;E&gt;): Boolean</text><ellipse cx="182.5" cy="407.0117" fill="#84BE84" rx="3" ry="3" style="stroke: #038048; stroke-width: 1.0;"/><text fill="#000000" font-family="sans-serif" font-size="11" font-style="italic" lengthAdjust="spacingAndGlyphs" textLength="66" x="191.5" y="409.3198">clear(): Unit</text><ellipse cx="182.5" cy="419.8164" fill="#84BE84" rx="3" ry="3" style="stroke: #038048; stroke-width: 1.0;"/><text fill="#000000" font-family="sans-serif" font-size="11" font-style="italic" lengthAdjust="spacingAndGlyphs" textLength="167" x="191.5" y="422.1245">remove(element: E): Boolean</text><ellipse cx="182.5" cy="432.6211" fill="#84BE84" rx="3" ry="3" style="stroke: #038048; stroke-width: 1.0;"/><text fill="#000000" font-family="sans-serif" font-size="11" font-style="italic" lengthAdjust="spacingAndGlyphs" textLength="249" x="191.5" y="434.9292">retainAll(elements: Collection&lt;E&gt;): Boolean</text><!--class List--><rect fill="#FEFECE" filter="url(#fudd5hi8xrf5y)" height="116.8281" id="List" style="stroke: #A80036; stroke-width: 1.5;" width="277" x="481.5" y="331"/><ellipse cx="586.75" cy="347" fill="#B4A7E5" rx="11" ry="11" style="stroke: #A80036; stroke-width: 1.0;"/><path d="M587.7031,343.7813 L587.7031,350.2969 L589.4219,350.2969 C589.875,350.2969 590.0156,350.3281 590.1875,350.4531 C590.4219,350.625 590.5313,350.875 590.5313,351.1563 C590.5313,351.7188 590.1719,352 589.4219,352 L584.2813,352 C583.875,352 583.6719,351.9531 583.5156,351.8281 C583.2969,351.6719 583.1563,351.4063 583.1563,351.1563 C583.1563,350.8594 583.3125,350.5781 583.5625,350.4219 C583.7188,350.3125 583.8438,350.2969 584.2813,350.2969 L586,350.2969 L586,343.7813 L584.2813,343.7813 C583.8594,343.7813 583.6719,343.75 583.5156,343.6406 C583.2969,343.4688 583.1563,343.2188 583.1563,342.9375 C583.1563,342.6563 583.3125,342.3594 583.5625,342.2031 C583.7188,342.1094 583.8438,342.0938 584.2813,342.0938 L589.4219,342.0938 C589.875,342.0938 590.0156,342.125 590.1875,342.2344 C590.4219,342.4063 590.5313,342.6719 590.5313,342.9375 C590.5313,343.2344 590.3906,343.5156 590.125,343.6719 C590,343.75 589.8125,343.7813 589.4219,343.7813 Z "/><text fill="#000000" font-family="sans-serif" font-size="12" font-style="italic" lengthAdjust="spacingAndGlyphs" textLength="21" x="607.25" y="351.1543">List</text><rect fill="#FFFFFF" height="15.9688" style="stroke: #000000; stroke-width: 1.0; stroke-dasharray: 2.0,2.0;" width="35" x="726.5" y="328"/><text fill="#000000" font-family="sans-serif" font-size="12" font-style="italic" lengthAdjust="spacingAndGlyphs" textLength="33" x="727.5" y="340.1387">out E</text><line style="stroke: #A80036; stroke-width: 1.5;" x1="482.5" x2="757.5" y1="363" y2="363"/><ellipse cx="492.5" cy="374.9023" fill="#84BE84" rx="3" ry="3" style="stroke: #038048; stroke-width: 1.0;"/><text fill="#000000" font-family="sans-serif" font-size="11" font-style="italic" lengthAdjust="spacingAndGlyphs" textLength="94" x="501.5" y="377.2104">get(index: Int): E</text><ellipse cx="492.5" cy="387.707" fill="#84BE84" rx="3" ry="3" style="stroke: #038048; stroke-width: 1.0;"/><text fill="#000000" font-family="sans-serif" font-size="11" font-style="italic" lengthAdjust="spacingAndGlyphs" textLength="135" x="501.5" y="390.0151">indexOf(element: E): Int</text><ellipse cx="492.5" cy="400.5117" fill="#84BE84" rx="3" ry="3" style="stroke: #038048; stroke-width: 1.0;"/><text fill="#000000" font-family="sans-serif" font-size="11" font-style="italic" lengthAdjust="spacingAndGlyphs" textLength="155" x="501.5" y="402.8198">lastIndexOf(element: E): Int</text><ellipse cx="492.5" cy="413.3164" fill="#84BE84" rx="3" ry="3" style="stroke: #038048; stroke-width: 1.0;"/><text fill="#000000" font-family="sans-serif" font-size="11" font-style="italic" lengthAdjust="spacingAndGlyphs" textLength="160" x="501.5" y="415.6245">listIterator(): ListIterator&lt;E&gt;</text><ellipse cx="492.5" cy="426.1211" fill="#84BE84" rx="3" ry="3" style="stroke: #038048; stroke-width: 1.0;"/><text fill="#000000" font-family="sans-serif" font-size="11" font-style="italic" lengthAdjust="spacingAndGlyphs" textLength="213" x="501.5" y="428.4292">listIterator(index: Int): ListIterator&lt;E&gt;</text><ellipse cx="492.5" cy="438.9258" fill="#84BE84" rx="3" ry="3" style="stroke: #038048; stroke-width: 1.0;"/><text fill="#000000" font-family="sans-serif" font-size="11" font-style="italic" lengthAdjust="spacingAndGlyphs" textLength="251" x="501.5" y="441.2339">subList(fromIndex: Int, toIndex: Int): List&lt;E&gt;</text><!--class MutableList--><rect fill="#FEFECE" filter="url(#fudd5hi8xrf5y)" height="91.2188" id="MutableList" style="stroke: #A80036; stroke-width: 1.5;" width="324" x="315" y="508"/><ellipse cx="431.25" cy="524" fill="#B4A7E5" rx="11" ry="11" style="stroke: #A80036; stroke-width: 1.0;"/><path d="M432.2031,520.7813 L432.2031,527.2969 L433.9219,527.2969 C434.375,527.2969 434.5156,527.3281 434.6875,527.4531 C434.9219,527.625 435.0313,527.875 435.0313,528.1563 C435.0313,528.7188 434.6719,529 433.9219,529 L428.7813,529 C428.375,529 428.1719,528.9531 428.0156,528.8281 C427.7969,528.6719 427.6563,528.4063 427.6563,528.1563 C427.6563,527.8594 427.8125,527.5781 428.0625,527.4219 C428.2188,527.3125 428.3438,527.2969 428.7813,527.2969 L430.5,527.2969 L430.5,520.7813 L428.7813,520.7813 C428.3594,520.7813 428.1719,520.75 428.0156,520.6406 C427.7969,520.4688 427.6563,520.2188 427.6563,519.9375 C427.6563,519.6563 427.8125,519.3594 428.0625,519.2031 C428.2188,519.1094 428.3438,519.0938 428.7813,519.0938 L433.9219,519.0938 C434.375,519.0938 434.5156,519.125 434.6875,519.2344 C434.9219,519.4063 435.0313,519.6719 435.0313,519.9375 C435.0313,520.2344 434.8906,520.5156 434.625,520.6719 C434.5,520.75 434.3125,520.7813 433.9219,520.7813 Z "/><text fill="#000000" font-family="sans-serif" font-size="12" font-style="italic" lengthAdjust="spacingAndGlyphs" textLength="71" x="451.75" y="528.1543">MutableList</text><rect fill="#FFFFFF" height="15.9688" style="stroke: #000000; stroke-width: 1.0; stroke-dasharray: 2.0,2.0;" width="10" x="632" y="505"/><text fill="#000000" font-family="sans-serif" font-size="12" font-style="italic" lengthAdjust="spacingAndGlyphs" textLength="8" x="633" y="517.1387">E</text><line style="stroke: #A80036; stroke-width: 1.5;" x1="316" x2="638" y1="540" y2="540"/><ellipse cx="326" cy="551.9023" fill="#84BE84" rx="3" ry="3" style="stroke: #038048; stroke-width: 1.0;"/><text fill="#000000" font-family="sans-serif" font-size="11" font-style="italic" lengthAdjust="spacingAndGlyphs" textLength="181" x="335" y="554.2104">add(index: Int, element: E): Unit</text><ellipse cx="326" cy="564.707" fill="#84BE84" rx="3" ry="3" style="stroke: #038048; stroke-width: 1.0;"/><text fill="#000000" font-family="sans-serif" font-size="11" font-style="italic" lengthAdjust="spacingAndGlyphs" textLength="298" x="335" y="567.0151">addAll(index: Int, elements: Collection&lt;E&gt;): Boolean</text><ellipse cx="326" cy="577.5117" fill="#84BE84" rx="3" ry="3" style="stroke: #038048; stroke-width: 1.0;"/><text fill="#000000" font-family="sans-serif" font-size="11" font-style="italic" lengthAdjust="spacingAndGlyphs" textLength="162" x="335" y="579.8198">set(index: Int, element: E): E</text><ellipse cx="326" cy="590.3164" fill="#84BE84" rx="3" ry="3" style="stroke: #038048; stroke-width: 1.0;"/><text fill="#000000" font-family="sans-serif" font-size="11" font-style="italic" lengthAdjust="spacingAndGlyphs" textLength="132" x="335" y="592.6245">removeAt(index: Int): E</text><!--class Set--><rect fill="#FEFECE" filter="url(#fudd5hi8xrf5y)" height="32" id="Set" style="stroke: #A80036; stroke-width: 1.5;" width="90" x="46" y="373.5"/><ellipse cx="61" cy="389.5" fill="#B4A7E5" rx="11" ry="11" style="stroke: #A80036; stroke-width: 1.0;"/><path d="M61.9531,386.2813 L61.9531,392.7969 L63.6719,392.7969 C64.125,392.7969 64.2656,392.8281 64.4375,392.9531 C64.6719,393.125 64.7813,393.375 64.7813,393.6563 C64.7813,394.2188 64.4219,394.5 63.6719,394.5 L58.5313,394.5 C58.125,394.5 57.9219,394.4531 57.7656,394.3281 C57.5469,394.1719 57.4063,393.9063 57.4063,393.6563 C57.4063,393.3594 57.5625,393.0781 57.8125,392.9219 C57.9688,392.8125 58.0938,392.7969 58.5313,392.7969 L60.25,392.7969 L60.25,386.2813 L58.5313,386.2813 C58.1094,386.2813 57.9219,386.25 57.7656,386.1406 C57.5469,385.9688 57.4063,385.7188 57.4063,385.4375 C57.4063,385.1563 57.5625,384.8594 57.8125,384.7031 C57.9688,384.6094 58.0938,384.5938 58.5313,384.5938 L63.6719,384.5938 C64.125,384.5938 64.2656,384.625 64.4375,384.7344 C64.6719,384.9063 64.7813,385.1719 64.7813,385.4375 C64.7813,385.7344 64.6406,386.0156 64.375,386.1719 C64.25,386.25 64.0625,386.2813 63.6719,386.2813 Z "/><text fill="#000000" font-family="sans-serif" font-size="12" font-style="italic" lengthAdjust="spacingAndGlyphs" textLength="21" x="75" y="393.6543">Set</text><rect fill="#FFFFFF" height="15.9688" style="stroke: #000000; stroke-width: 1.0; stroke-dasharray: 2.0,2.0;" width="35" x="104" y="370.5"/><text fill="#000000" font-family="sans-serif" font-size="12" font-style="italic" lengthAdjust="spacingAndGlyphs" textLength="33" x="105" y="382.6387">out E</text><!--class MutableSet--><rect fill="#FEFECE" filter="url(#fudd5hi8xrf5y)" height="32" id="MutableSet" style="stroke: #A80036; stroke-width: 1.5;" width="115" x="164.5" y="537.5"/><ellipse cx="179.5" cy="553.5" fill="#B4A7E5" rx="11" ry="11" style="stroke: #A80036; stroke-width: 1.0;"/><path d="M180.4531,550.2813 L180.4531,556.7969 L182.1719,556.7969 C182.625,556.7969 182.7656,556.8281 182.9375,556.9531 C183.1719,557.125 183.2813,557.375 183.2813,557.6563 C183.2813,558.2188 182.9219,558.5 182.1719,558.5 L177.0313,558.5 C176.625,558.5 176.4219,558.4531 176.2656,558.3281 C176.0469,558.1719 175.9063,557.9063 175.9063,557.6563 C175.9063,557.3594 176.0625,557.0781 176.3125,556.9219 C176.4688,556.8125 176.5938,556.7969 177.0313,556.7969 L178.75,556.7969 L178.75,550.2813 L177.0313,550.2813 C176.6094,550.2813 176.4219,550.25 176.2656,550.1406 C176.0469,549.9688 175.9063,549.7188 175.9063,549.4375 C175.9063,549.1563 176.0625,548.8594 176.3125,548.7031 C176.4688,548.6094 176.5938,548.5938 177.0313,548.5938 L182.1719,548.5938 C182.625,548.5938 182.7656,548.625 182.9375,548.7344 C183.1719,548.9063 183.2813,549.1719 183.2813,549.4375 C183.2813,549.7344 183.1406,550.0156 182.875,550.1719 C182.75,550.25 182.5625,550.2813 182.1719,550.2813 Z "/><text fill="#000000" font-family="sans-serif" font-size="12" font-style="italic" lengthAdjust="spacingAndGlyphs" textLength="71" x="193.5" y="557.6543">MutableSet</text><rect fill="#FFFFFF" height="15.9688" style="stroke: #000000; stroke-width: 1.0; stroke-dasharray: 2.0,2.0;" width="10" x="272.5" y="534.5"/><text fill="#000000" font-family="sans-serif" font-size="12" font-style="italic" lengthAdjust="spacingAndGlyphs" textLength="8" x="273.5" y="546.6387">E</text><!--class EmptyList--><rect fill="#FEFECE" filter="url(#fudd5hi8xrf5y)" height="32" id="EmptyList" style="stroke: #A80036; stroke-width: 1.5;" width="91" x="674.5" y="537.5"/><ellipse cx="689.5" cy="553.5" fill="#FF7700" rx="11" ry="11" style="stroke: #A80036; stroke-width: 1.0;"/><path d="M689.5938,548.3438 C690.7344,548.3438 691.8438,548.8125 692.75,549.6563 C693.8125,550.6875 694.3438,551.9844 694.3438,553.625 C694.3438,556.4063 692.1875,558.7344 689.5938,558.7344 C686.9844,558.7344 684.8594,556.4063 684.8594,553.5313 C684.8594,550.6875 686.9844,548.3438 689.5938,548.3438 Z M689.5938,550.0469 C687.9375,550.0469 686.5625,551.625 686.5625,553.5313 C686.5625,555.4531 687.9375,557.0313 689.5938,557.0313 C691.25,557.0313 692.6406,555.4531 692.6406,553.5938 C692.6406,551.625 691.2813,550.0469 689.5938,550.0469 Z "/><text fill="#000000" font-family="sans-serif" font-size="12" lengthAdjust="spacingAndGlyphs" textLength="59" x="703.5" y="557.6543">EmptyList</text><!--class EmptySet--><rect fill="#FEFECE" filter="url(#fudd5hi8xrf5y)" height="32" id="EmptySet" style="stroke: #A80036; stroke-width: 1.5;" width="91" x="38.5" y="537.5"/><ellipse cx="53.5" cy="553.5" fill="#FF7700" rx="11" ry="11" style="stroke: #A80036; stroke-width: 1.0;"/><path d="M53.5938,548.3438 C54.7344,548.3438 55.8438,548.8125 56.75,549.6563 C57.8125,550.6875 58.3438,551.9844 58.3438,553.625 C58.3438,556.4063 56.1875,558.7344 53.5938,558.7344 C50.9844,558.7344 48.8594,556.4063 48.8594,553.5313 C48.8594,550.6875 50.9844,548.3438 53.5938,548.3438 Z M53.5938,550.0469 C51.9375,550.0469 50.5625,551.625 50.5625,553.5313 C50.5625,555.4531 51.9375,557.0313 53.5938,557.0313 C55.25,557.0313 56.6406,555.4531 56.6406,553.5938 C56.6406,551.625 55.2813,550.0469 53.5938,550.0469 Z "/><text fill="#000000" font-family="sans-serif" font-size="12" lengthAdjust="spacingAndGlyphs" textLength="59" x="67.5" y="557.6543">EmptySet</text><!--link Iterable to MutableIterable--><path d="M421.059,126.082 C444.022,148.219 471.992,175.183 492.153,194.619 " fill="none" id="Iterable-MutableIterable" style="stroke: #A80036; stroke-width: 1.0;"/><polygon fill="none" points="416.012,130.94,406.472,112.02,425.729,120.861,416.012,130.94" style="stroke: #A80036; stroke-width: 1.0;"/><!--link Iterable to Collection--><path d="M339.249,126.07 C324.503,140.388 307.677,156.727 292.213,171.742 " fill="none" id="Iterable-Collection" style="stroke: #A80036; stroke-width: 1.0;"/><polygon fill="none" points="334.493,120.93,353.718,112.02,344.246,130.974,334.493,120.93" style="stroke: #A80036; stroke-width: 1.0;"/><!--link Collection to MutableCollection--><path d="M269.287,290.107 C275.654,305.881 282.331,322.424 288.354,337.347 " fill="none" id="Collection-MutableCollection" style="stroke: #A80036; stroke-width: 1.0;"/><polygon fill="none" points="262.734,292.574,261.74,271.408,275.717,287.334,262.734,292.574" style="stroke: #A80036; stroke-width: 1.0;"/><!--link MutableIterable to MutableCollection--><path d="M470.717,260.667 C441.882,283.46 404.894,312.698 373.572,337.458 " fill="none" id="MutableIterable-MutableCollection" style="stroke: #A80036; stroke-width: 1.0;"/><polygon fill="none" points="466.617,254.985,486.648,248.074,475.299,265.968,466.617,254.985" style="stroke: #A80036; stroke-width: 1.0;"/><!--link Collection to List--><path d="M370.974,279.139 C409.051,295.861 450.755,314.175 488.96,330.953 " fill="none" id="Collection-List" style="stroke: #A80036; stroke-width: 1.0;"/><polygon fill="none" points="368.101,285.523,352.604,271.072,373.73,272.705,368.101,285.523" style="stroke: #A80036; stroke-width: 1.0;"/><!--link List to MutableList--><path d="M555.915,463.1 C542.459,478.344 528.649,493.989 516.418,507.844 " fill="none" id="List-MutableList" style="stroke: #A80036; stroke-width: 1.0;"/><polygon fill="none" points="550.697,458.433,569.181,448.071,561.193,467.698,550.697,458.433" style="stroke: #A80036; stroke-width: 1.0;"/><!--link MutableCollection to MutableList--><path d="M376.727,455.808 C394.852,473.286 414.029,491.778 430.704,507.858 " fill="none" id="MutableCollection-MutableList" style="stroke: #A80036; stroke-width: 1.0;"/><polygon fill="none" points="371.694,460.679,362.156,441.758,381.412,450.602,371.694,460.679" style="stroke: #A80036; stroke-width: 1.0;"/><!--link Collection to Set--><path d="M183.787,286.496 C155.095,318.038 122.882,353.451 104.9603,373.153 " fill="none" id="Collection-Set" style="stroke: #A80036; stroke-width: 1.0;"/><polygon fill="none" points="178.876,281.492,197.512,271.408,189.232,290.913,178.876,281.492" style="stroke: #A80036; stroke-width: 1.0;"/><!--link Set to MutableSet--><path d="M115.925,421.323 C143.913,455.934 188.209,510.713 209.613,537.1819 " fill="none" id="Set-MutableSet" style="stroke: #A80036; stroke-width: 1.0;"/><polygon fill="none" points="110.457,425.694,103.3242,405.741,121.343,416.891,110.457,425.694" style="stroke: #A80036; stroke-width: 1.0;"/><!--link MutableCollection to MutableSet--><path d="M271.989,459.417 C256.403,488.439 239.68,519.578 230.068,537.4774 " fill="none" id="MutableCollection-MutableSet" style="stroke: #A80036; stroke-width: 1.0;"/><polygon fill="none" points="265.843,456.066,281.473,441.758,278.177,462.69,265.843,456.066" style="stroke: #A80036; stroke-width: 1.0;"/><!--link List to EmptyList--><path d="M666.127,465.226 C682.919,492.429 700.297,520.582 710.625,537.3118 " fill="none" id="List-EmptyList" style="stroke: #A80036; stroke-width: 1.0;"/><polygon fill="none" points="660.087,468.767,655.538,448.071,672,461.413,660.087,468.767" style="stroke: #A80036; stroke-width: 1.0;"/><!--link Set to EmptySet--><path d="M89.458,426.186 C87.959,460.878 85.7534,511.922 84.6619,537.1819 " fill="none" id="Set-EmptySet" style="stroke: #A80036; stroke-width: 1.0;"/><polygon fill="none" points="82.4845,425.42,90.3415,405.741,96.4714,426.024,82.4845,425.42" style="stroke: #A80036; stroke-width: 1.0;"/><!--
@startuml
package kotlin.collections {
 interface Iterable<out T> {
  {abstract} + iterator(): Iterator<T>
 }
 interface MutableIterable<out T> {
  {abstract} + iterator(): MutableIterator<T>
 }
 interface Collection<out T> {
  {abstract} + size: Int
  {abstract} + isEmpty(): Boolean
  {abstract} + contains(element: E): Boolean
  {abstract} + containsAll(elements: Collection<E>): Boolean
 }
 interface MutableCollection<E> {
  {abstract} + add(element: E): Boolean
  {abstract} + addAll(elements: Collection<E>): Boolean
  {abstract} + clear(): Unit
  {abstract} + remove(element: E): Boolean
  {abstract} + retainAll(elements: Collection<E>): Boolean
 }
 interface List<out E> {
  {abstract} + get(index: Int): E
  {abstract} + indexOf(element: E): Int
  {abstract} + lastIndexOf(element: E): Int
  {abstract} + listIterator(): ListIterator<E>
  {abstract} + listIterator(index: Int): ListIterator<E>
  {abstract} + subList(fromIndex: Int, toIndex: Int): List<E>
 }
 interface MutableList<E> {
  {abstract} + add(index: Int, element: E): Unit
  {abstract} + addAll(index: Int, elements: Collection<E>): Boolean
  {abstract} + set(index: Int, element: E): E
  {abstract} + removeAt(index: Int): E
 }
 interface Set<out E>
 interface MutableSet<E>
 class EmptyList <<(O,#FF7700)>>
 class EmptySet <<(O,#FF7700)>>
}
MutableIterable -up-|> Iterable
Collection -up-|> Iterable
MutableCollection -up-|> Collection
MutableCollection -up-|> MutableIterable
List -up-|> Collection
MutableList -up-|> List
MutableList -up-|> MutableCollection
Set -up-|> Collection
MutableSet -up-|> Set
MutableSet -up-|> MutableCollection
EmptyList -up-|> List
EmptySet -up-|> Set
hide empty attributes
hide empty methods
@enduml

PlantUML version 1.2017.16beta1(Unknown compile time)
(GPL source distribution)
Java Runtime: Java(TM) SE Runtime Environment
JVM: Java HotSpot(TM) 64-Bit Server VM
Java Version: 1.7.0_25-b15
Operating System: Linux
Default Encoding: UTF-8
Language: en
Country: US
--></g></svg>