<?xml version="1.0" encoding="UTF-8" standalone="no"?><svg xmlns="http://www.w3.org/2000/svg" xmlns:xlink="http://www.w3.org/1999/xlink" contentScriptType="application/ecmascript" contentStyleType="text/css" height="430px" preserveAspectRatio="none" style="width:435px;height:430px;" version="1.1" viewBox="0 0 435 430" width="435px" zoomAndPan="magnify"><defs><filter height="300%" id="f4aczfap1qete" width="300%" x="-1" y="-1"><feGaussianBlur result="blurOut" stdDeviation="2.0"/><feColorMatrix in="blurOut" result="blurOut2" type="matrix" values="0 0 0 0 0 0 0 0 0 0 0 0 0 0 0 0 0 0 .4 0"/><feOffset dx="4.0" dy="4.0" in="blurOut2" result="blurOut3"/><feBlend in="SourceGraphic" in2="blurOut3" mode="normal"/></filter></defs><g><!--cluster kotlin.collections--><polygon fill="#FFFFFF" filter="url(#f4aczfap1qete)" points="22,24,161,24,168,46.2969,413,46.2969,413,418,22,418,22,24" style="stroke: #000000; stroke-width: 2.0;"/><line style="stroke: #000000; stroke-width: 2.0;" x1="22" x2="168" y1="46.2969" y2="46.2969"/><text fill="#000000" font-family="sans-serif" font-size="14" font-weight="bold" lengthAdjust="spacingAndGlyphs" textLength="133" x="26" y="38.9951">kotlin.collections</text><!--class Iterator--><rect fill="#FEFECE" filter="url(#f4aczfap1qete)" height="65.6094" id="Iterator" style="stroke: #A80036; stroke-width: 1.5;" width="134" x="236" y="59"/><ellipse cx="259.1" cy="75" fill="#B4A7E5" rx="11" ry="11" style="stroke: #A80036; stroke-width: 1.0;"/><path d="M260.0531,71.7813 L260.0531,78.2969 L261.7719,78.2969 C262.225,78.2969 262.3656,78.3281 262.5375,78.4531 C262.7719,78.625 262.8813,78.875 262.8813,79.1563 C262.8813,79.7188 262.5219,80 261.7719,80 L256.6313,80 C256.225,80 256.0219,79.9531 255.8656,79.8281 C255.6469,79.6719 255.5063,79.4063 255.5063,79.1563 C255.5063,78.8594 255.6625,78.5781 255.9125,78.4219 C256.0688,78.3125 256.1938,78.2969 256.6313,78.2969 L258.35,78.2969 L258.35,71.7813 L256.6313,71.7813 C256.2094,71.7813 256.0219,71.75 255.8656,71.6406 C255.6469,71.4688 255.5063,71.2188 255.5063,70.9375 C255.5063,70.6563 255.6625,70.3594 255.9125,70.2031 C256.0688,70.1094 256.1938,70.0938 256.6313,70.0938 L261.7719,70.0938 C262.225,70.0938 262.3656,70.125 262.5375,70.2344 C262.7719,70.4063 262.8813,70.6719 262.8813,70.9375 C262.8813,71.2344 262.7406,71.5156 262.475,71.6719 C262.35,71.75 262.1625,71.7813 261.7719,71.7813 Z "/><text fill="#000000" font-family="sans-serif" font-size="12" font-style="italic" lengthAdjust="spacingAndGlyphs" textLength="48" x="274.9" y="79.1543">Iterator</text><rect fill="#FFFFFF" height="15.9688" style="stroke: #000000; stroke-width: 1.0; stroke-dasharray: 2.0,2.0;" width="34" x="339" y="56"/><text fill="#000000" font-family="sans-serif" font-size="12" font-style="italic" lengthAdjust="spacingAndGlyphs" textLength="32" x="340" y="68.1387">out T</text><line style="stroke: #A80036; stroke-width: 1.5;" x1="237" x2="369" y1="91" y2="91"/><ellipse cx="247" cy="102.9023" fill="#84BE84" rx="3" ry="3" style="stroke: #038048; stroke-width: 1.0;"/><text fill="#000000" font-family="sans-serif" font-size="11" font-style="italic" lengthAdjust="spacingAndGlyphs" textLength="48" x="256" y="105.2104">next(): T</text><ellipse cx="247" cy="115.707" fill="#84BE84" rx="3" ry="3" style="stroke: #038048; stroke-width: 1.0;"/><text fill="#000000" font-family="sans-serif" font-size="11" font-style="italic" lengthAdjust="spacingAndGlyphs" textLength="108" x="256" y="118.0151">hasNext(): Boolean</text><!--class MutableIterator--><rect fill="#FEFECE" filter="url(#f4aczfap1qete)" height="52.8047" id="MutableIterator" style="stroke: #A80036; stroke-width: 1.5;" width="166" x="231" y="204"/><ellipse cx="246" cy="220" fill="#B4A7E5" rx="11" ry="11" style="stroke: #A80036; stroke-width: 1.0;"/><path d="M246.9531,216.7813 L246.9531,223.2969 L248.6719,223.2969 C249.125,223.2969 249.2656,223.3281 249.4375,223.4531 C249.6719,223.625 249.7813,223.875 249.7813,224.1563 C249.7813,224.7188 249.4219,225 248.6719,225 L243.5313,225 C243.125,225 242.9219,224.9531 242.7656,224.8281 C242.5469,224.6719 242.4063,224.4063 242.4063,224.1563 C242.4063,223.8594 242.5625,223.5781 242.8125,223.4219 C242.9688,223.3125 243.0938,223.2969 243.5313,223.2969 L245.25,223.2969 L245.25,216.7813 L243.5313,216.7813 C243.1094,216.7813 242.9219,216.75 242.7656,216.6406 C242.5469,216.4688 242.4063,216.2188 242.4063,215.9375 C242.4063,215.6563 242.5625,215.3594 242.8125,215.2031 C242.9688,215.1094 243.0938,215.0938 243.5313,215.0938 L248.6719,215.0938 C249.125,215.0938 249.2656,215.125 249.4375,215.2344 C249.6719,215.4063 249.7813,215.6719 249.7813,215.9375 C249.7813,216.2344 249.6406,216.5156 249.375,216.6719 C249.25,216.75 249.0625,216.7813 248.6719,216.7813 Z "/><text fill="#000000" font-family="sans-serif" font-size="12" font-style="italic" lengthAdjust="spacingAndGlyphs" textLength="98" x="260" y="224.1543">MutableIterator</text><rect fill="#FFFFFF" height="15.9688" style="stroke: #000000; stroke-width: 1.0; stroke-dasharray: 2.0,2.0;" width="34" x="366" y="201"/><text fill="#000000" font-family="sans-serif" font-size="12" font-style="italic" lengthAdjust="spacingAndGlyphs" textLength="32" x="367" y="213.1387">out T</text><line style="stroke: #A80036; stroke-width: 1.5;" x1="232" x2="396" y1="236" y2="236"/><ellipse cx="242" cy="247.9023" fill="#84BE84" rx="3" ry="3" style="stroke: #038048; stroke-width: 1.0;"/><text fill="#000000" font-family="sans-serif" font-size="11" font-style="italic" lengthAdjust="spacingAndGlyphs" textLength="82" x="251" y="250.2104">remove(): Unit</text><!--class ListIterator--><rect fill="#FEFECE" filter="url(#f4aczfap1qete)" height="91.2188" id="ListIterator" style="stroke: #A80036; stroke-width: 1.5;" width="157" x="38.5" y="185"/><ellipse cx="62.5" cy="201" fill="#B4A7E5" rx="11" ry="11" style="stroke: #A80036; stroke-width: 1.0;"/><path d="M63.4531,197.7813 L63.4531,204.2969 L65.1719,204.2969 C65.625,204.2969 65.7656,204.3281 65.9375,204.4531 C66.1719,204.625 66.2813,204.875 66.2813,205.1563 C66.2813,205.7188 65.9219,206 65.1719,206 L60.0313,206 C59.625,206 59.4219,205.9531 59.2656,205.8281 C59.0469,205.6719 58.9063,205.4063 58.9063,205.1563 C58.9063,204.8594 59.0625,204.5781 59.3125,204.4219 C59.4688,204.3125 59.5938,204.2969 60.0313,204.2969 L61.75,204.2969 L61.75,197.7813 L60.0313,197.7813 C59.6094,197.7813 59.4219,197.75 59.2656,197.6406 C59.0469,197.4688 58.9063,197.2188 58.9063,196.9375 C58.9063,196.6563 59.0625,196.3594 59.3125,196.2031 C59.4688,196.1094 59.5938,196.0938 60.0313,196.0938 L65.1719,196.0938 C65.625,196.0938 65.7656,196.125 65.9375,196.2344 C66.1719,196.4063 66.2813,196.6719 66.2813,196.9375 C66.2813,197.2344 66.1406,197.5156 65.875,197.6719 C65.75,197.75 65.5625,197.7813 65.1719,197.7813 Z "/><text fill="#000000" font-family="sans-serif" font-size="12" font-style="italic" lengthAdjust="spacingAndGlyphs" textLength="69" x="78.5" y="205.1543">ListIterator</text><rect fill="#FFFFFF" height="15.9688" style="stroke: #000000; stroke-width: 1.0; stroke-dasharray: 2.0,2.0;" width="34" x="164.5" y="182"/><text fill="#000000" font-family="sans-serif" font-size="12" font-style="italic" lengthAdjust="spacingAndGlyphs" textLength="32" x="165.5" y="194.1387">out T</text><line style="stroke: #A80036; stroke-width: 1.5;" x1="39.5" x2="194.5" y1="217" y2="217"/><ellipse cx="49.5" cy="228.9023" fill="#84BE84" rx="3" ry="3" style="stroke: #038048; stroke-width: 1.0;"/><text fill="#000000" font-family="sans-serif" font-size="11" font-style="italic" lengthAdjust="spacingAndGlyphs" textLength="131" x="58.5" y="231.2104">hasPrevious(): Boolean</text><ellipse cx="49.5" cy="241.707" fill="#84BE84" rx="3" ry="3" style="stroke: #038048; stroke-width: 1.0;"/><text fill="#000000" font-family="sans-serif" font-size="11" font-style="italic" lengthAdjust="spacingAndGlyphs" textLength="72" x="58.5" y="244.0151">previous(): T</text><ellipse cx="49.5" cy="254.5117" fill="#84BE84" rx="3" ry="3" style="stroke: #038048; stroke-width: 1.0;"/><text fill="#000000" font-family="sans-serif" font-size="11" font-style="italic" lengthAdjust="spacingAndGlyphs" textLength="86" x="58.5" y="256.8198">nextIndex(): Int</text><ellipse cx="49.5" cy="267.3164" fill="#84BE84" rx="3" ry="3" style="stroke: #038048; stroke-width: 1.0;"/><text fill="#000000" font-family="sans-serif" font-size="11" font-style="italic" lengthAdjust="spacingAndGlyphs" textLength="110" x="58.5" y="269.6245">previousIndex(): Int</text><!--class MutableListIterator--><rect fill="#FEFECE" filter="url(#f4aczfap1qete)" height="65.6094" id="MutableListIterator" style="stroke: #A80036; stroke-width: 1.5;" width="162" x="222" y="336"/><ellipse cx="237" cy="352" fill="#B4A7E5" rx="11" ry="11" style="stroke: #A80036; stroke-width: 1.0;"/><path d="M237.9531,348.7813 L237.9531,355.2969 L239.6719,355.2969 C240.125,355.2969 240.2656,355.3281 240.4375,355.4531 C240.6719,355.625 240.7813,355.875 240.7813,356.1563 C240.7813,356.7188 240.4219,357 239.6719,357 L234.5313,357 C234.125,357 233.9219,356.9531 233.7656,356.8281 C233.5469,356.6719 233.4063,356.4063 233.4063,356.1563 C233.4063,355.8594 233.5625,355.5781 233.8125,355.4219 C233.9688,355.3125 234.0938,355.2969 234.5313,355.2969 L236.25,355.2969 L236.25,348.7813 L234.5313,348.7813 C234.1094,348.7813 233.9219,348.75 233.7656,348.6406 C233.5469,348.4688 233.4063,348.2188 233.4063,347.9375 C233.4063,347.6563 233.5625,347.3594 233.8125,347.2031 C233.9688,347.1094 234.0938,347.0938 234.5313,347.0938 L239.6719,347.0938 C240.125,347.0938 240.2656,347.125 240.4375,347.2344 C240.6719,347.4063 240.7813,347.6719 240.7813,347.9375 C240.7813,348.2344 240.6406,348.5156 240.375,348.6719 C240.25,348.75 240.0625,348.7813 239.6719,348.7813 Z "/><text fill="#000000" font-family="sans-serif" font-size="12" font-style="italic" lengthAdjust="spacingAndGlyphs" textLength="119" x="251" y="356.1543">MutableListIterator</text><rect fill="#FFFFFF" height="15.9688" style="stroke: #000000; stroke-width: 1.0; stroke-dasharray: 2.0,2.0;" width="9" x="378" y="333"/><text fill="#000000" font-family="sans-serif" font-size="12" font-style="italic" lengthAdjust="spacingAndGlyphs" textLength="7" x="379" y="345.1387">T</text><line style="stroke: #A80036; stroke-width: 1.5;" x1="223" x2="383" y1="368" y2="368"/><ellipse cx="233" cy="379.9023" fill="#84BE84" rx="3" ry="3" style="stroke: #038048; stroke-width: 1.0;"/><text fill="#000000" font-family="sans-serif" font-size="11" font-style="italic" lengthAdjust="spacingAndGlyphs" textLength="116" x="242" y="382.2104">set(element: T): Unit</text><ellipse cx="233" cy="392.707" fill="#84BE84" rx="3" ry="3" style="stroke: #038048; stroke-width: 1.0;"/><text fill="#000000" font-family="sans-serif" font-size="11" font-style="italic" lengthAdjust="spacingAndGlyphs" textLength="120" x="242" y="395.0151">add(element: T): Unit</text><!--class Iterable--><rect fill="#FEFECE" filter="url(#f4aczfap1qete)" height="52.8047" id="Iterable" style="stroke: #A80036; stroke-width: 1.5;" width="151" x="49.5" y="65.5"/><ellipse cx="79.8" cy="81.5" fill="#B4A7E5" rx="11" ry="11" style="stroke: #A80036; stroke-width: 1.0;"/><path d="M80.7531,78.2813 L80.7531,84.7969 L82.4719,84.7969 C82.925,84.7969 83.0656,84.8281 83.2375,84.9531 C83.4719,85.125 83.5813,85.375 83.5813,85.6563 C83.5813,86.2188 83.2219,86.5 82.4719,86.5 L77.3313,86.5 C76.925,86.5 76.7219,86.4531 76.5656,86.3281 C76.3469,86.1719 76.2063,85.9063 76.2063,85.6563 C76.2063,85.3594 76.3625,85.0781 76.6125,84.9219 C76.7688,84.8125 76.8938,84.7969 77.3313,84.7969 L79.05,84.7969 L79.05,78.2813 L77.3313,78.2813 C76.9094,78.2813 76.7219,78.25 76.5656,78.1406 C76.3469,77.9688 76.2063,77.7188 76.2063,77.4375 C76.2063,77.1563 76.3625,76.8594 76.6125,76.7031 C76.7688,76.6094 76.8938,76.5938 77.3313,76.5938 L82.4719,76.5938 C82.925,76.5938 83.0656,76.625 83.2375,76.7344 C83.4719,76.9063 83.5813,77.1719 83.5813,77.4375 C83.5813,77.7344 83.4406,78.0156 83.175,78.1719 C83.05,78.25 82.8625,78.2813 82.4719,78.2813 Z "/><text fill="#000000" font-family="sans-serif" font-size="12" font-style="italic" lengthAdjust="spacingAndGlyphs" textLength="49" x="97.2" y="85.6543">Iterable</text><rect fill="#FFFFFF" height="15.9688" style="stroke: #000000; stroke-width: 1.0; stroke-dasharray: 2.0,2.0;" width="34" x="169.5" y="62.5"/><text fill="#000000" font-family="sans-serif" font-size="12" font-style="italic" lengthAdjust="spacingAndGlyphs" textLength="32" x="170.5" y="74.6387">out T</text><line style="stroke: #A80036; stroke-width: 1.5;" x1="50.5" x2="199.5" y1="97.5" y2="97.5"/><ellipse cx="60.5" cy="109.4023" fill="#84BE84" rx="3" ry="3" style="stroke: #038048; stroke-width: 1.0;"/><text fill="#000000" font-family="sans-serif" font-size="11" font-style="italic" lengthAdjust="spacingAndGlyphs" textLength="125" x="69.5" y="111.7104">iterator(): Iterator&lt;T&gt;</text><!--class EmptyIterator--><rect fill="#FEFECE" filter="url(#f4aczfap1qete)" height="32" id="EmptyIterator" style="stroke: #A80036; stroke-width: 1.5;" width="117" x="58.5" y="353"/><ellipse cx="73.5" cy="369" fill="#FF7700" rx="11" ry="11" style="stroke: #A80036; stroke-width: 1.0;"/><path d="M73.5938,363.8438 C74.7344,363.8438 75.8438,364.3125 76.75,365.1563 C77.8125,366.1875 78.3438,367.4844 78.3438,369.125 C78.3438,371.9063 76.1875,374.2344 73.5938,374.2344 C70.9844,374.2344 68.8594,371.9063 68.8594,369.0313 C68.8594,366.1875 70.9844,363.8438 73.5938,363.8438 Z M73.5938,365.5469 C71.9375,365.5469 70.5625,367.125 70.5625,369.0313 C70.5625,370.9531 71.9375,372.5313 73.5938,372.5313 C75.25,372.5313 76.6406,370.9531 76.6406,369.0938 C76.6406,367.125 75.2813,365.5469 73.5938,365.5469 Z "/><text fill="#000000" font-family="sans-serif" font-size="12" lengthAdjust="spacingAndGlyphs" textLength="85" x="87.5" y="373.1543">EmptyIterator</text><!--link ListIterator to EmptyIterator--><path d="M117,296.408 C117,317.475 117,338.9661 117,352.8295 " fill="none" id="ListIterator-EmptyIterator" style="stroke: #A80036; stroke-width: 1.0;"/><polygon fill="none" points="110,296.195,117,276.195,124,296.195,110,296.195" style="stroke: #A80036; stroke-width: 1.0;"/><!--link Iterator to ListIterator--><path d="M242.978,137.049 C222.166,152.322 198.823,169.453 177.938,184.78 " fill="none" id="Iterator-ListIterator" style="stroke: #A80036; stroke-width: 1.0;"/><polygon fill="none" points="239.126,131.193,259.391,125.003,247.409,142.48,239.126,131.193" style="stroke: #A80036; stroke-width: 1.0;"/><!--link Iterator to MutableIterator--><path d="M307.207,145.206 C308.819,165.204 310.587,187.15 311.916,203.635 " fill="none" id="Iterator-MutableIterator" style="stroke: #A80036; stroke-width: 1.0;"/><polygon fill="none" points="300.208,145.501,305.579,125.003,314.163,144.376,300.208,145.501" style="stroke: #A80036; stroke-width: 1.0;"/><!--link MutableIterator to MutableListIterator--><path d="M310.309,277.298 C308.766,296.452 307.008,318.262 305.603,335.6946 " fill="none" id="MutableIterator-MutableListIterator" style="stroke: #A80036; stroke-width: 1.0;"/><polygon fill="none" points="303.347,276.548,311.931,257.175,317.302,277.672,303.347,276.548" style="stroke: #A80036; stroke-width: 1.0;"/><!--link ListIterator to MutableListIterator--><path d="M193.948,287.97 C216.215,304.311 239.748,321.581 259.231,335.8792 " fill="none" id="ListIterator-MutableListIterator" style="stroke: #A80036; stroke-width: 1.0;"/><polygon fill="none" points="189.628,293.483,177.646,276.006,197.912,282.196,189.628,293.483" style="stroke: #A80036; stroke-width: 1.0;"/><!--link Iterable to Iterator--><path d="M200.789,92 C210.762,92 220.736,92 230.709,92 " fill="none" id="Iterable-Iterator" style="stroke: #A80036; stroke-width: 1.0; stroke-dasharray: 7.0,7.0;"/><polygon fill="#A80036" points="235.924,92,226.924,88,230.924,92,226.924,96,235.924,92" style="stroke: #A80036; stroke-width: 1.0;"/><!--
@startuml
package kotlin.collections {
 interface Iterator<out T> {
  {abstract} + next(): T
  {abstract} + hasNext(): Boolean
 }
 interface MutableIterator<out T> {
  {abstract} + remove(): Unit
 }
 interface ListIterator<out T> {
  {abstract} + hasPrevious(): Boolean
  {abstract} + previous(): T
  {abstract} + nextIndex(): Int
  {abstract} + previousIndex(): Int
 }
 interface MutableListIterator<T> {
  {abstract} + set(element: T): Unit
  {abstract} + add(element: T): Unit
 }
 interface Iterable<out T> {
  {abstract} + iterator(): Iterator<T>
 }
 class EmptyIterator <<(O,#FF7700)>>
 EmptyIterator -up-|> ListIterator
 ListIterator -up-|> Iterator
 MutableIterator -up-|> Iterator
 MutableListIterator -up-|> MutableIterator
 MutableListIterator -up-|> ListIterator
}
Iterable .right.> Iterator
hide empty attributes
hide empty methods
@enduml

PlantUML version 1.2017.16beta1(Unknown compile time)
(GPL source distribution)
Java Runtime: Java(TM) SE Runtime Environment
JVM: Java HotSpot(TM) 64-Bit Server VM
Java Version: 1.7.0_25-b15
Operating System: Linux
Default Encoding: UTF-8
Language: en
Country: US
--></g></svg>